  0
SECTION
  2
HEADER
  9
$ACADVER
  1
AC1015
  9
$ACADMAINTVER
 70
     6
  9
$DWGCODEPAGE
  3
ANSI_1252
  9
$INSBASE
 10
0.0
 20
0.0
 30
0.0
  9
$EXTMIN
 10
0.0
 20
0.0
 30
0.0
  9
$EXTMAX
 10
100.0
 20
100.0
 30
0.0
  9
$LIMMIN
 10
0.0
 20
0.0
  9
$LIMMAX
 10
420.0
 20
297.0
  9
$ORTHOMODE
 70
     0
  9
$REGENMODE
 70
     1
  9
$FILLMODE
 70
     1
  9
$QTEXTMODE
 70
     0
  9
$MIRRTEXT
 70
     1
  9
$LTSCALE
 40
1.0
  9
$ATTMODE
 70
     1
  9
$TEXTSIZE
 40
3.5
  9
$TRACEWID
 40
1.0
  9
$TEXTSTYLE
  7
Standard
  9
$CLAYER
  8
0
  9
$CELTYPE
  6
ByLayer
  9
$CECOLOR
 62
   256
  9
$CELTSCALE
 40
1.0
  9
$DISPSILH
 70
     0
  9
$DIMSCALE
 40
1.0
  9
$DIMASZ
 40
3.302
  9
$DIMEXO
 40
1.0
  9
$DIMDLI
 40
3.75
  9
$DIMRND
 40
0.0
  9
$DIMDLE
 40
0.0
  9
$DIMEXE
 40
1.0
  9
$DIMTP
 40
0.0
  9
$DIMTM
 40
0.0
  9
$DIMTXT
 40
3.5
  9
$DIMCEN
 40
2.5
  9
$DIMTSZ
 40
0.0
  9
$DIMTOL
 70
     0
  9
$DIMLIM
 70
     0
  9
$DIMTIH
 70
     1
  9
$DIMTOH
 70
     1
  9
$DIMSE1
 70
     0
  9
$DIMSE2
 70
     0
  9
$DIMTAD
 70
     1
  9
$DIMZIN
 70
     0
  9
$DIMBLK
  1

  9
$DIMASO
 70
     1
  9
$DIMSHO
 70
     1
  9
$DIMPOST
  1

  9
$DIMAPOST
  1

  9
$DIMALT
 70
     0
  9
$DIMALTD
 70
     3
  9
$DIMALTF
 40
0.0393700787
  9
$DIMLFAC
 40
1.0
  9
$DIMTOFL
 70
     1
  9
$DIMTVP
 40
0.0
  9
$DIMTIX
 70
     0
  9
$DIMSOXD
 70
     0
  9
$DIMSAH
 70
     0
  9
$DIMBLK1
  1

  9
$DIMBLK2
  1

  9
$DIMSTYLE
  2
ISO-25
  9
$DIMCLRD
 70
     0
  9
$DIMCLRE
 70
     0
  9
$DIMCLRT
 70
     0
  9
$DIMTFAC
 40
1.0
  9
$DIMGAP
 40
1.524
  9
$DIMJUST
 70
     0
  9
$DIMSD1
 70
     0
  9
$DIMSD2
 70
     0
  9
$DIMTOLJ
 70
     0
  9
$DIMTZIN
 70
     0
  9
$DIMALTZ
 70
     0
  9
$DIMALTTZ
 70
     0
  9
$DIMUPT
 70
     0
  9
$DIMDEC
 70
     2
  9
$DIMTDEC
 70
     2
  9
$DIMALTU
 70
     2
  9
$DIMALTTD
 70
     3
  9
$DIMTXSTY
  7
Standard
  9
$DIMAUNIT
 70
     0
  9
$DIMADEC
 70
     2
  9
$DIMALTRND
 40
0.0
  9
$DIMAZIN
 70
     0
  9
$DIMDSEP
 70
    44
  9
$DIMATFIT
 70
     3
  9
$DIMFRAC
 70
     0
  9
$DIMLDRBLK
  1

  9
$DIMLUNIT
 70
     2
  9
$DIMLWD
 70
    -2
  9
$DIMLWE
 70
    -2
  9
$DIMTMOVE
 70
     0
  9
$LUNITS
 70
     2
  9
$LUPREC
 70
     2
  9
$SKETCHINC
 40
1.0
  9
$FILLETRAD
 40
10.0
  9
$AUNITS
 70
     0
  9
$AUPREC
 70
     2
  9
$MENU
  1
.
  9
$ELEVATION
 40
0.0
  9
$PELEVATION
 40
0.0
  9
$THICKNESS
 40
0.0
  9
$LIMCHECK
 70
     0
  9
$CHAMFERA
 40
0.0
  9
$CHAMFERB
 40
0.0
  9
$CHAMFERC
 40
0.0
  9
$CHAMFERD
 40
0.0
  9
$SKPOLY
 70
     0
  9
$TDCREATE
 40
2459570.878445683
  9
$TDUCREATE
 40
2459570.836779016
  9
$TDUPDATE
 40
2459570.878548067
  9
$TDUUPDATE
 40
2459570.836881401
  9
$TDINDWG
 40
0.0000000116
  9
$TDUSRTIMER
 40
0.0000000116
  9
$USRTIMER
 70
     1
  9
$ANGBASE
 50
0.0
  9
$ANGDIR
 70
     0
  9
$PDMODE
 70
     0
  9
$PDSIZE
 40
-1.0
  9
$PLINEWID
 40
0.0
  9
$SPLFRAME
 70
     0
  9
$SPLINETYPE
 70
     6
  9
$SPLINESEGS
 70
     8
  9
$HANDSEED
  5
DB
  9
$SURFTAB1
 70
     6
  9
$SURFTAB2
 70
     6
  9
$SURFTYPE
 70
     6
  9
$SURFU
 70
     6
  9
$SURFV
 70
     6
  9
$UCSBASE
  2

  9
$UCSNAME
  2

  9
$UCSORG
 10
0.0
 20
0.0
 30
0.0
  9
$UCSXDIR
 10
1.0
 20
0.0
 30
0.0
  9
$UCSYDIR
 10
0.0
 20
1.0
 30
0.0
  9
$UCSORTHOREF
  2

  9
$UCSORTHOVIEW
 70
     0
  9
$UCSORGTOP
 10
0.0
 20
0.0
 30
0.0
  9
$UCSORGBOTTOM
 10
0.0
 20
0.0
 30
0.0
  9
$UCSORGLEFT
 10
0.0
 20
0.0
 30
0.0
  9
$UCSORGRIGHT
 10
0.0
 20
0.0
 30
0.0
  9
$UCSORGFRONT
 10
0.0
 20
0.0
 30
0.0
  9
$UCSORGBACK
 10
0.0
 20
0.0
 30
0.0
  9
$PUCSBASE
  2

  9
$PUCSNAME
  2

  9
$PUCSORG
 10
0.0
 20
0.0
 30
0.0
  9
$PUCSXDIR
 10
1.0
 20
0.0
 30
0.0
  9
$PUCSYDIR
 10
0.0
 20
1.0
 30
0.0
  9
$PUCSORTHOREF
  2

  9
$PUCSORTHOVIEW
 70
     0
  9
$PUCSORGTOP
 10
0.0
 20
0.0
 30
0.0
  9
$PUCSORGBOTTOM
 10
0.0
 20
0.0
 30
0.0
  9
$PUCSORGLEFT
 10
0.0
 20
0.0
 30
0.0
  9
$PUCSORGRIGHT
 10
0.0
 20
0.0
 30
0.0
  9
$PUCSORGFRONT
 10
0.0
 20
0.0
 30
0.0
  9
$PUCSORGBACK
 10
0.0
 20
0.0
 30
0.0
  9
$USERI1
 70
     0
  9
$USERI2
 70
     0
  9
$USERI3
 70
     0
  9
$USERI4
 70
     0
  9
$USERI5
 70
     0
  9
$USERR1
 40
0.0
  9
$USERR2
 40
0.0
  9
$USERR3
 40
0.0
  9
$USERR4
 40
0.0
  9
$USERR5
 40
0.0
  9
$WORLDVIEW
 70
     1
  9
$SHADEDGE
 70
     3
  9
$SHADEDIF
 70
    70
  9
$TILEMODE
 70
     1
  9
$MAXACTVP
 70
    64
  9
$PINSBASE
 10
0.0
 20
0.0
 30
0.0
  9
$PLIMCHECK
 70
     0
  9
$PEXTMIN
 10
1.0000000000E+20
 20
1.0000000000E+20
 30
1.0000000000E+20
  9
$PEXTMAX
 10
-1.0000000000E+20
 20
-1.0000000000E+20
 30
-1.0000000000E+20
  9
$PLIMMIN
 10
0.0
 20
0.0
  9
$PLIMMAX
 10
420.0
 20
297.0
  9
$UNITMODE
 70
     0
  9
$VISRETAIN
 70
     1
  9
$PLINEGEN
 70
     0
  9
$PSLTSCALE
 70
     1
  9
$TREEDEPTH
 70
  3020
  9
$CMLSTYLE
  2
Standard
  9
$CMLJUST
 70
     0
  9
$CMLSCALE
 40
20.0
  9
$PROXYGRAPHICS
 70
     1
  9
$MEASUREMENT
 70
     1
  9
$CELWEIGHT
370
    -1
  9
$ENDCAPS
280
     0
  9
$JOINSTYLE
280
     0
  9
$LWDISPLAY
290
     1
  9
$INSUNITS
 70
     4
  9
$HYPERLINKBASE
  1

  9
$STYLESHEET
  1

  9
$XEDIT
290
     1
  9
$CEPSNTYPE
380
     0
  9
$PSTYLEMODE
290
     1
  9
$FINGERPRINTGUID
  2
{94A492A9-D287-4B7F-9E43-F0AAF6385E8F}
  9
$VERSIONGUID
  2
{FAEB1C32-E019-11D5-929B-00C0DF256EC4}
  9
$EXTNAMES
290
     1
  9
$PSVPSCALE
 40
0.0
  9
$OLESTARTUP
290
     0
  0
ENDSEC
  0
SECTION
  2
CLASSES
  0
CLASS
  1
ACDBDICTIONARYWDFLT
  2
AcDbDictionaryWithDefault
  3
ObjectDBX Classes
 90
        0
280
     0
281
     0
  0
CLASS
  1
VISUALSTYLE
  2
AcDbVisualStyle
  3
ObjectDBX Classes
 90
     4095
280
     0
281
     0
  0
CLASS
  1
MATERIAL
  2
AcDbMaterial
  3
ObjectDBX Classes
 90
     1153
280
     0
281
     0
  0
CLASS
  1
SCALE
  2
AcDbScale
  3
ObjectDBX Classes
 90
     1153
280
     0
281
     0
  0
CLASS
  1
TABLESTYLE
  2
AcDbTableStyle
  3
ObjectDBX Classes
 90
     4095
280
     0
281
     0
  0
CLASS
  1
MLEADERSTYLE
  2
AcDbMLeaderStyle
  3
ACDB_MLEADERSTYLE_CLASS
 90
     4095
280
     0
281
     0
  0
CLASS
  1
SUN
  2
AcDbSun
  3
SCENEOE
 90
     1153
280
     0
281
     0
  0
CLASS
  1
ACDBPLACEHOLDER
  2
AcDbPlaceHolder
  3
ObjectDBX Classes
 90
        0
280
     0
281
     0
  0
CLASS
  1
LAYOUT
  2
AcDbLayout
  3
ObjectDBX Classes
 90
        0
280
     0
281
     0
  0
ENDSEC
  0
SECTION
  2
TABLES
  0
TABLE
  2
VPORT
  5
8
330
0
100
AcDbSymbolTable
 70
     1
  0
VPORT
  5
29
330
8
100
AcDbSymbolTableRecord
100
AcDbViewportTableRecord
  2
*Active
 70
     0
 10
0.0
 20
0.0
 11
1.0
 21
1.0
 12
50.0
 22
50.0
 13
0.0
 23
0.0
 14
10.0
 24
10.0
 15
10.0
 25
10.0
 16
0.0
 26
0.0
 36
1.0
 17
0.0
 27
0.0
 37
0.0
 40
102.0
 41
1.0
 42
50.0
 43
0.0
 44
0.0
 50
0.0
 51
0.0
 71
     0
 72
   100
 73
     1
 74
     3
 75
     0
 76
     0
 77
     0
 78
     0
281
     0
 65
     1
110
0.0
120
0.0
130
0.0
111
1.0
121
0.0
131
0.0
112
0.0
122
1.0
132
0.0
 79
     0
146
0.0
  0
ENDTAB
  0
TABLE
  2
LTYPE
  5
5
330
0
100
AcDbSymbolTable
 70
     6
  0
LTYPE
  5
14
330
5
100
AcDbSymbolTableRecord
100
AcDbLinetypeTableRecord
  2
ByBlock
 70
     0
  3

 72
    65
 73
     0
 40
0.0
  0
LTYPE
  5
15
330
5
100
AcDbSymbolTableRecord
100
AcDbLinetypeTableRecord
  2
ByLayer
 70
     0
  3

 72
    65
 73
     0
 40
0.0
  0
LTYPE
  5
16
330
5
100
AcDbSymbolTableRecord
100
AcDbLinetypeTableRecord
  2
Continuous
 70
     0
  3
Solid line
 72
    65
 73
     0
 40
0.0
  0
LTYPE
  5
6E
330
5
100
AcDbSymbolTableRecord
100
AcDbLinetypeTableRecord
  2
HIDDEN
 70
     0
  3
Hidden __ __ __ __ __ __ __ __ __ __ __ __ __ __
 72
    65
 73
     2
 40
1.905
 49
1.27
 74
     0
 49
-0.635
 74
     0
  0
LTYPE
  5
6F
330
5
100
AcDbSymbolTableRecord
100
AcDbLinetypeTableRecord
  2
PHANTOM
 70
     0
  3
Phantom ______  __  __  ______  __  __  ______
 72
    65
 73
     6
 40
12.7
 49
6.35
 74
     0
 49
-1.27
 74
     0
 49
1.27
 74
     0
 49
-1.27
 74
     0
 49
1.27
 74
     0
 49
-1.27
 74
     0
  0
LTYPE
  5
70
330
5
100
AcDbSymbolTableRecord
100
AcDbLinetypeTableRecord
  2
CENTER
 70
     0
  3
Center ____ _ ____ _ ____ _ ____ _ ____ _ ____
 72
    65
 73
     4
 40
10.16
 49
6.35
 74
     0
 49
-1.27
 74
     0
 49
1.27
 74
     0
 49
-1.27
 74
     0
  0
LTYPE
  5
71
330
5
100
AcDbSymbolTableRecord
100
AcDbLinetypeTableRecord
  2
CENTERX2
 70
     0
  3
Center (2x) ________  __  ________  __  _____
 72
    65
 73
     4
 40
20.32
 49
12.7
 74
     0
 49
-2.54
 74
     0
 49
2.54
 74
     0
 49
-2.54
 74
     0
  0
LTYPE
  5
72
330
5
100
AcDbSymbolTableRecord
100
AcDbLinetypeTableRecord
  2
DOT2
 70
     0
  3
Dot (.5x) ........................................
 72
    65
 73
     2
 40
0.635
 49
0.0
 74
     0
 49
-0.635
 74
     0
  0
ENDTAB
  0
TABLE
  2
LAYER
  5
2
330
0
100
AcDbSymbolTable
 70
     1
  0
LAYER
  5
10
330
2
100
AcDbSymbolTableRecord
100
AcDbLayerTableRecord
  2
0
 70
     0
 62
     7
  6
Continuous
370
    -3
390
F
  0
ENDTAB
  0
TABLE
  2
STYLE
  5
3
330
0
100
AcDbSymbolTable
 70
     1
  0
STYLE
  5
11
330
3
100
AcDbSymbolTableRecord
100
AcDbTextStyleTableRecord
  2
Standard
 70
     0
 40
0.0
 41
1.0
 50
0.0
 71
     0
 42
3.5
  3
txt
  4

  0
ENDTAB
  0
TABLE
  2
VIEW
  5
6
330
0
100
AcDbSymbolTable
 70
     0
  0
ENDTAB
  0
TABLE
  2
UCS
  5
7
330
0
100
AcDbSymbolTable
 70
     0
  0
ENDTAB
  0
TABLE
  2
APPID
  5
9
330
0
100
AcDbSymbolTable
 70
     1
  0
APPID
  5
12
330
9
100
AcDbSymbolTableRecord
100
AcDbRegAppTableRecord
  2
ACAD
 70
     0
  0
ENDTAB
  0
TABLE
  2
DIMSTYLE
  5
A
330
0
100
AcDbSymbolTable
 70
     1
100
AcDbDimStyleTable
  0
DIMSTYLE
105
27
330
A
100
AcDbSymbolTableRecord
100
AcDbDimStyleTableRecord
  2
ISO-25
 70
     0
 41
2.5
 42
0.625
 43
3.75
 44
1.25
 73
     0
 74
     0
 77
     1
 78
     8
140
2.5
141
2.5
143
0.0393700787
147
0.625
171
     3
172
     1
178
     0
271
     2
272
     2
274
     3
278
    44
283
     0
284
     8
340
11
  0
ENDTAB
  0
TABLE
  2
BLOCK_RECORD
  5
1
330
0
100
AcDbSymbolTable
 70
     1
  0
BLOCK_RECORD
  5
1F
330
1
100
AcDbSymbolTableRecord
100
AcDbBlockTableRecord
  2
*Model_Space
340
22
  0
BLOCK_RECORD
  5
1B
330
1
100
AcDbSymbolTableRecord
100
AcDbBlockTableRecord
  2
*Paper_Space
340
1E
  0
BLOCK_RECORD
  5
23
330
1
100
AcDbSymbolTableRecord
100
AcDbBlockTableRecord
  2
*Paper_Space0
340
26
  0
ENDTAB
  0
ENDSEC
  0
SECTION
  2
BLOCKS
  0
BLOCK
  5
20
330
1F
100
AcDbEntity
  8
0
100
AcDbBlockBegin
  2
*Model_Space
 70
     0
 10
0.0
 20
0.0
 30
0.0
  3
*Model_Space
  1

  0
ENDBLK
  5
21
330
1F
100
AcDbEntity
  8
0
100
AcDbBlockEnd
  0
BLOCK
  5
1C
330
1B
100
AcDbEntity
 67
     1
  8
0
100
AcDbBlockBegin
  2
*Paper_Space
 70
     0
 10
0.0
 20
0.0
 30
0.0
  3
*Paper_Space
  1

  0
ENDBLK
  5
1D
330
1B
100
AcDbEntity
 67
     1
  8
0
100
AcDbBlockEnd
  0
BLOCK
  5
24
330
23
100
AcDbEntity
  8
0
100
AcDbBlockBegin
  2
*Paper_Space0
 70
     0
 10
0.0
 20
0.0
 30
0.0
  3
*Paper_Space0
  1

  0
ENDBLK
  5
25
330
23
100
AcDbEntity
  8
0
100
AcDbBlockEnd
  0
ENDSEC
  0
SECTION
  2
ENTITIES
  0
CIRCLE
  5
7F
330
1F
100
AcDbEntity
  8
0
  6
Continuous
 62
     7
370
    15
100
AcDbCircle
 10
74.7209325726
 20
74.7209325726
 30
0.0
 40
1.050000000000196
  0
CIRCLE
  5
80
330
1F
100
AcDbEntity
  8
0
  6
Continuous
 62
     7
370
    15
100
AcDbCircle
 10
74.7209325726
 20
96.99479618
 30
0.0
 40
1.049999999999187
  0
CIRCLE
  5
81
330
1F
100
AcDbEntity
  8
0
  6
Continuous
 62
     7
370
    15
100
AcDbCircle
 10
96.99479618
 20
74.7209325726
 30
0.0
 40
1.049999999999756
  0
CIRCLE
  5
82
330
1F
100
AcDbEntity
  8
0
  6
Continuous
 62
     7
370
    15
100
AcDbCircle
 10
96.99479618
 20
96.99479618
 30
0.0
 40
1.049999999999898
  0
CIRCLE
  5
83
330
1F
100
AcDbEntity
  8
0
  6
Continuous
 62
     7
370
    15
100
AcDbCircle
 10
85.8578643763
 20
85.8578643763
 30
0.0
 40
5.999999999999986
  0
CIRCLE
  5
84
330
1F
100
AcDbEntity
  8
0
  6
Continuous
 62
     7
370
    15
100
AcDbCircle
 10
86.99479618
 20
96.99479618
 30
0.0
 40
0.9999999999999574
  0
CIRCLE
  5
85
330
1F
100
AcDbEntity
  8
0
  6
Continuous
 62
     7
370
    15
100
AcDbCircle
 10
96.99479618
 20
86.99479618
 30
0.0
 40
1.0
  0
SPLINE
  5
88
330
1F
100
AcDbEntity
  8
0
  6
Continuous
 62
     7
370
    15
100
AcDbSpline
210
0.0
220
0.0
230
1.0
 70
     8
 71
     3
 72
    38
 73
    34
 74
     0
 42
0.000000001
 43
0.00000001
 40
0.0
 40
0.0
 40
0.0
 40
0.0
 40
0.0666365528932441
 40
0.1320835466364166
 40
0.1963429258497252
 40
0.2594167449990117
 40
0.3213071766149743
 40
0.3820165202737518
 40
0.4415472124222989
 40
0.499901837142426
 40
0.5688648910487669
 40
0.6335104702768318
 40
0.6938462576439346
 40
0.7498817086951882
 40
0.7849043127244395
 40
0.817410613851456
 40
0.8474064157614597
 40
0.8748991120785088
 40
0.8899136736859752
 40
0.9039272654245077
 40
0.9169427029977174
 40
0.9289635035404414
 40
0.939994135653416
 40
0.9500403893130452
 40
0.9591099399652782
 40
0.9672132389312077
 40
0.974364974936335
 40
0.9805865800588757
 40
0.9859107308242657
 40
0.9903897888839899
 40
0.994111953508257
 40
0.9972303227192231
 40
0.9999999999999999
 40
0.9999999999999999
 40
0.9999999999999999
 40
0.9999999999999999
 10
59.94764278068814
 20
4.477261950816047
 30
0.0
 10
59.2737702667141
 20
4.490018750184295
 30
0.0
 10
57.93805484084139
 20
4.51530462154362
 30
0.0
 10
55.95279407777905
 20
4.566236990103431
 30
0.0
 10
54.00384807696359
 20
4.62634937728603
 30
0.0
 10
52.09123239753091
 20
4.696548969620615
 30
0.0
 10
50.21494279907209
 20
4.776600891417224
 30
0.0
 10
48.37497984114957
 20
4.866559756345937
 30
0.0
 10
46.57134402011847
 20
4.96643426405316
 30
0.0
 10
44.68509360296196
 20
5.083521092265529
 30
0.0
 10
42.74819899129486
 20
5.219055285402272
 30
0.0
 10
40.79279946835911
 20
5.375887351196505
 30
0.0
 10
38.96954662915436
 20
5.543372084788632
 30
0.0
 10
37.44664471364295
 20
5.703737782862373
 30
0.0
 10
36.20554345240202
 20
5.851023377838064
 30
0.0
 10
35.22748312717759
 20
5.979308232580277
 30
0.0
 10
34.32671307698625
 20
6.110558157122442
 30
0.0
 10
33.60289942701888
 20
6.228592315571081
 30
0.0
 10
33.04022135069066
 20
6.329703170602587
 30
0.0
 10
32.62267882354359
 20
6.41036041941661
 30
0.0
 10
32.23604085946531
 20
6.491131462997908
 30
0.0
 10
31.88029831850879
 20
6.571999424266658
 30
0.0
 10
31.55544177536804
 20
6.652959204818836
 30
0.0
 10
31.26145537018236
 20
6.73400065168412
 30
0.0
 10
30.99831768488949
 20
6.815112347333292
 30
0.0
 10
30.76598560209804
 20
6.89628146142178
 30
0.0
 10
30.56441715169837
 20
6.9774967948215
 30
0.0
 10
30.39345244033725
 20
7.058760481731041
 30
0.0
 10
30.25309077221333
 20
7.140117432726939
 30
0.0
 10
30.14254798659458
 20
7.221759569371732
 30
0.0
 10
30.0629485616588
 20
7.304239097183002
 30
0.0
 10
30.01028341896869
 20
7.388910451117482
 30
0.0
 10
30.00328975058972
 20
7.448686833159468
 30
0.0
 10
29.99999999999999
 20
7.476805036285221
 30
0.0
  0
SPLINE
  5
8A
330
1F
100
AcDbEntity
  8
0
  6
Continuous
 62
     7
370
    15
100
AcDbSpline
210
0.0
220
0.0
230
1.0
 70
     8
 71
     3
 72
    43
 73
    39
 74
     0
 42
0.000000001
 43
0.00000001
 40
0.0
 40
0.0
 40
0.0
 40
0.0
 40
0.0777484926700707
 40
0.1533829658027752
 40
0.2269048188495336
 40
0.2983155754662378
 40
0.3676168985523446
 40
0.4348106076192911
 40
0.4998986989312634
 40
0.5692013039088359
 40
0.6339578676449257
 40
0.6941730153080604
 40
0.7498525038135961
 40
0.7685442877213349
 40
0.7864979473954018
 40
0.8037138659270311
 40
0.8201924778600794
 40
0.8359342787973668
 40
0.8509398373479573
 40
0.8652098101313253
 40
0.8787449608219446
 40
0.8915461846054094
 40
0.9036145399883002
 40
0.9149512907616927
 40
0.9255579622332303
 40
0.9354364179055044
 40
0.9445889660965759
 40
0.9530185114857148
 40
0.9607287759235956
 40
0.9677246293449738
 40
0.9740126018036929
 40
0.9796017050722562
 40
0.984504805949106
 40
0.9887410266972866
 40
0.992340134837217
 40
0.9953508553050386
 40
0.9978564772287652
 40
0.9999999999999999
 40
0.9999999999999999
 40
0.9999999999999999
 40
0.9999999999999999
 10
77.85628773770091
 20
36.92014366487233
 30
0.0
 10
77.63996063877276
 20
36.05664106344275
 30
0.0
 10
77.21318848052766
 20
34.35311491859873
 30
0.0
 10
76.56869037992352
 20
31.83635373845787
 30
0.0
 10
75.93206816150817
 20
29.39250848852451
 30
0.0
 10
75.30245050959265
 20
27.02179593582138
 30
0.0
 10
74.68006615046754
 20
24.72415853609379
 30
0.0
 10
74.06484235089134
 20
22.49961410858704
 30
0.0
 10
73.43718057441501
 20
20.27853105908079
 30
0.0
 10
72.8031488780481
 20
18.08828496289234
 30
0.0
 10
72.16787629906855
 20
15.95654663115807
 30
0.0
 10
71.55938393731489
 20
13.97966803644128
 30
0.0
 10
71.09059940906239
 20
12.51170890500777
 30
0.0
 10
70.76056760085896
 20
11.50746611580909
 30
0.0
 10
70.56547580333029
 20
10.92244689320197
 30
0.0
 10
70.37570073341949
 20
10.36237334517381
 30
0.0
 10
70.19125414121756
 20
9.827241222303371
 30
0.0
 10
70.01213386120006
 20
9.317050934226522
 30
0.0
 10
69.83834136145758
 20
8.83180156800454
 30
0.0
 10
69.66987736827072
 20
8.371492344816732
 30
0.0
 10
69.50674299917179
 20
7.936122193965243
 30
0.0
 10
69.34893952768758
 20
7.525689774510624
 30
0.0
 10
69.19646850130509
 20
7.140193350193703
 30
0.0
 10
69.04933178623251
 20
6.779630652016748
 30
0.0
 10
68.90753164703729
 20
6.443998658095252
 30
0.0
 10
68.77107083401269
 20
6.133293301099712
 30
0.0
 10
68.63995267965282
 20
5.8475089107708
 30
0.0
 10
68.514181176302
 20
5.586637719545859
 30
0.0
 10
68.39376098879856
 20
5.350667826457128
 30
0.0
 10
68.2786971953718
 20
5.1395839772682
 30
0.0
 10
68.16899450325846
 20
4.953355462774339
 30
0.0
 10
68.06465439357811
 20
4.79195856770618
 30
0.0
 10
67.96566898269523
 20
4.655279559442102
 30
0.0
 10
67.87199944663855
 20
4.543368137683308
 30
0.0
 10
67.78353447871837
 20
4.455614570299048
 30
0.0
 10
67.6999435418029
 20
4.393130545634547
 30
0.0
 10
67.62052428260907
 20
4.35213118873419
 30
0.0
 10
67.56711910454608
 20
4.347040424939823
 30
0.0
 10
67.54249624963602
 20
4.344693290395267
 30
0.0
  0
SPLINE
  5
8F
330
1F
100
AcDbEntity
  8
0
  6
Continuous
 62
     7
370
    15
100
AcDbSpline
210
0.0
220
0.0
230
1.0
 70
     8
 71
     3
 72
    22
 73
    18
 74
     0
 42
0.000000001
 43
0.00000001
 40
0.0
 40
0.0
 40
0.0
 40
0.0
 40
0.0925846114923232
 40
0.1814320684437377
 40
0.2665680314004363
 40
0.348021668708278
 40
0.4258262902488548
 40
0.5000201208262631
 40
0.573762569464384
 40
0.642707348176412
 40
0.7069258957193169
 40
0.766506653869532
 40
0.8215604202380073
 40
0.8722276995938155
 40
0.9186888097791017
 40
0.9611776539425394
 40
0.9999999999999999
 40
0.9999999999999999
 40
0.9999999999999999
 40
0.9999999999999999
 10
70.58747708986
 20
65.80817741088029
 30
0.0
 10
70.72578453646177
 20
65.957838114975
 30
0.0
 10
70.9968166843929
 20
66.25111850651072
 30
0.0
 10
71.4036681046073
 20
66.67391010970726
 30
0.0
 10
71.800210588491
 20
67.07249576290126
 30
0.0
 10
72.1870029529479
 20
67.44636736191167
 30
0.0
 10
72.56389826213196
 20
67.79566744927321
 30
0.0
 10
72.93610373430121
 20
68.12487076081241
 30
0.0
 10
73.30173389280027
 20
68.43185678226577
 30
0.0
 10
73.6591211556245
 20
68.71422633147174
 30
0.0
 10
74.00088447419195
 20
68.96571580729987
 30
0.0
 10
74.32702872215552
 20
69.18637910780267
 30
0.0
 10
74.6376030732644
 20
69.37614576719486
 30
0.0
 10
74.93258671270306
 20
69.5353308497068
 30
0.0
 10
75.21225345338591
 20
69.66298268435737
 30
0.0
 10
75.47601313308452
 20
69.76226362970482
 30
0.0
 10
75.65010064685838
 20
69.8043722568764
 30
0.0
 10
75.73321941176208
 20
69.82447718575051
 30
0.0
  0
SPLINE
  5
92
330
1F
100
AcDbEntity
  8
0
  6
Continuous
 62
     7
370
    15
100
AcDbSpline
210
0.0
220
0.0
230
1.0
 70
     8
 71
     3
 72
    56
 73
    52
 74
     0
 42
0.000000001
 43
0.00000001
 40
0.0
 40
0.0
 40
0.0
 40
0.0
 40
0.0013116348758049
 40
0.0027366549934195
 40
0.0043207709071204
 40
0.0060974556638314
 40
0.0080905032863623
 40
0.0103167812409035
 40
0.0127883865573601
 40
0.0155141519093392
 40
0.0185006557636848
 40
0.0217528947454088
 40
0.025274734622622
 40
0.0290692172555338
 40
0.0331387731755898
 40
0.0374853714921715
 40
0.0421106274925698
 40
0.0470158811880463
 40
0.0522022555641401
 40
0.0576707004185092
 40
0.0634220258036539
 40
0.0694569278617321
 40
0.0757760090148461
 40
0.0823797939138975
 40
0.0892687421623962
 40
0.0964432585608936
 40
0.1039037014256554
 40
0.1116503893972145
 40
0.1196836070541238
 40
0.1280036095734812
 40
0.1366106266250043
 40
0.1455048656443108
 40
0.1546865145999267
 40
0.1641557443447379
 40
0.1739127106242808
 40
0.1839575558000171
 40
0.1942904103346139
 40
0.2049113940774705
 40
0.2158206173817743
 40
0.2270181820788217
 40
0.238504182330877
 40
0.2502787053802461
 40
0.2944587418093251
 40
0.3415391735893185
 40
0.3915231481108904
 40
0.444413294414547
 40
0.5002118307550094
 40
0.6154757319039625
 40
0.7371888578618786
 40
0.8653608598140469
 40
0.9999999999999999
 40
0.9999999999999999
 40
0.9999999999999999
 40
0.9999999999999999
 10
4.344693290395226
 20
67.54249624963599
 30
0.0
 10
4.345447499769533
 20
67.55754895081446
 30
0.0
 10
4.347021116702391
 20
67.58895559499906
 30
0.0
 10
4.362200128561658
 20
67.63653283102958
 30
0.0
 10
4.386249649667169
 20
67.68587247543691
 30
0.0
 10
4.420235276736524
 20
67.73709052302522
 30
0.0
 10
4.463774387595473
 20
67.79027274691138
 30
0.0
 10
4.516994721021551
 20
67.8454765270071
 30
0.0
 10
4.579878803510865
 20
67.9027335985281
 30
0.0
 10
4.652455767759155
 20
67.96206121349944
 30
0.0
 10
4.734736130329688
 20
68.02346814722846
 30
0.0
 10
4.826731695511969
 20
68.08695868758048
 30
0.0
 10
4.92845008974361
 20
68.15253470384908
 30
0.0
 10
5.039897326988334
 20
68.22019681053396
 30
0.0
 10
5.161077782917286
 20
68.28994498052568
 30
0.0
 10
5.29199477839424
 20
68.361778877994
 30
0.0
 10
5.432650824208088
 20
68.4356980348203
 30
0.0
 10
5.58304784919203
 20
68.51170194381545
 30
0.0
 10
5.74318734787127
 20
68.58979010623173
 30
0.0
 10
5.913070491323322
 20
68.66996205456063
 30
0.0
 10
6.092698206147648
 20
68.75221736193953
 30
0.0
 10
6.282071232611104
 20
68.83655564446174
 30
0.0
 10
6.481190167450794
 20
68.92297655985638
 30
0.0
 10
6.69005549581319
 20
69.01147980445262
 30
0.0
 10
6.908667615281486
 20
69.10206510947364
 30
0.0
 10
7.137026854132471
 20
69.19473223721724
 30
0.0
 10
7.375133485332724
 20
69.28948097740735
 30
0.0
 10
7.622987737362904
 20
69.38631114384636
 30
0.0
 10
7.880589802659384
 20
69.48522257141607
 30
0.0
 10
8.147939844249088
 20
69.58621511343175
 30
0.0
 10
8.425038001008168
 20
69.68928863931512
 30
0.0
 10
8.711884391842005
 20
69.79444303261499
 30
0.0
 10
9.0084791191027
 20
69.90167818910867
 30
0.0
 10
9.314822271115213
 20
70.01099401586507
 30
0.0
 10
9.630913925158941
 20
70.12239042766653
 30
0.0
 10
9.956754146285169
 20
70.23586735471001
 30
0.0
 10
10.29234300047863
 20
70.35142470717003
 30
0.0
 10
10.63768051045615
 20
70.46906250845497
 30
0.0
 10
10.99276683336312
 20
70.58878037296388
 30
0.0
 10
11.35760157538061
 20
70.71057953110464
 30
0.0
 10
11.73218645532535
 20
70.83445496844378
 30
0.0
 10
12.46595351767488
 20
71.07496097052764
 30
0.0
 10
13.58932621119582
 20
71.43527464338374
 30
0.0
 10
15.13351122173469
 20
71.91581427036925
 30
0.0
 10
16.77676717917782
 20
72.41345065462691
 30
0.0
 10
18.51909908531823
 20
72.92817487768801
 30
0.0
 10
20.98265401146235
 20
73.63955785476087
 30
0.0
 10
24.21069017050851
 20
74.54369584122772
 30
0.0
 10
28.24712783917454
 20
75.6332439893893
 30
0.0
 10
32.50674507529276
 20
76.74680165126054
 30
0.0
 10
35.42507316718832
 20
77.48044135044182
 30
0.0
 10
36.92014366487228
 20
77.85628773770091
 30
0.0
  0
SPLINE
  5
94
330
1F
100
AcDbEntity
  8
0
  6
Continuous
 62
     7
370
    15
100
AcDbSpline
210
0.0
220
0.0
230
1.0
 70
     8
 71
     3
 72
    45
 73
    41
 74
     0
 42
0.000000001
 43
0.00000001
 40
0.0
 40
0.0
 40
0.0
 40
0.0
 40
0.0015824565701063
 40
0.0032349738142252
 40
0.0050206864909003
 40
0.0069899600526122
 40
0.0091805350989793
 40
0.0116199021854109
 40
0.0143279857525587
 40
0.0173193455615146
 40
0.020604777417802
 40
0.0241924233777136
 40
0.0280885312638894
 40
0.03229797562906
 40
0.0368246188822771
 40
0.0416715651885635
 40
0.0468413417723081
 40
0.0523360304287602
 40
0.0581573643834937
 40
0.0643068006722462
 40
0.0707855749700588
 40
0.0775947436572236
 40
0.0847352164772982
 40
0.0922077821714807
 40
0.1000131288062693
 40
0.1081518600464713
 40
0.1166245082975765
 40
0.1254315454071479
 40
0.1529301663064363
 40
0.1829267777804487
 40
0.2154287349516328
 40
0.2504418141002406
 40
0.3064436931435213
 40
0.3667355571073732
 40
0.4313268234654854
 40
0.5002251467027385
 40
0.6180839555402792
 40
0.7406537479612465
 40
0.8679534618409303
 40
1.0
 40
1.0
 40
1.0
 40
1.0
 10
7.476805036285186
 20
30.0
 30
0.0
 10
7.46077050577311
 20
30.00102748535563
 30
0.0
 10
7.427991542160554
 20
30.00312794629892
 30
0.0
 10
7.379475153579867
 20
30.01986067994315
 30
0.0
 10
7.331355380926219
 20
30.04620260464942
 30
0.0
 10
7.283561629323983
 20
30.08306943328192
 30
0.0
 10
7.235988382185219
 20
30.1300632525169
 30
0.0
 10
7.188553671044449
 20
30.18728129190471
 30
0.0
 10
7.141206771378417
 20
30.25470935502326
 30
0.0
 10
7.09391959744042
 20
30.33237943405528
 30
0.0
 10
7.046677703292051
 20
30.42030753828601
 30
0.0
 10
6.999474206777177
 20
30.51850962401656
 30
0.0
 10
6.952306240463058
 20
30.62699661983026
 30
0.0
 10
6.905172996219449
 20
30.74577689921873
 30
0.0
 10
6.858074678150867
 20
30.87485653235384
 30
0.0
 10
6.811011950827742
 20
31.01424003733358
 30
0.0
 10
6.763985653283684
 20
31.16393077425613
 30
0.0
 10
6.716996654499138
 20
31.32393127539589
 30
0.0
 10
6.670045784037591
 20
31.49424346632518
 30
0.0
 10
6.623133801642867
 20
31.674868827419
 30
0.0
 10
6.576261389282849
 20
31.86580850859063
 30
0.0
 10
6.529429145213005
 20
32.06706341076998
 30
0.0
 10
6.482637615746974
 20
32.27863425148379
 30
0.0
 10
6.435887196867399
 20
32.50052158722285
 30
0.0
 10
6.389178563863215
 20
32.73272593327273
 30
0.0
 10
6.34251099832752
 20
32.97524744137243
 30
0.0
 10
6.295889069192019
 20
33.22808729585184
 30
0.0
 10
6.216925056496223
 20
33.67407332886608
 30
0.0
 10
6.109134542854409
 20
34.33602715748589
 30
0.0
 10
5.978015670206012
 20
35.23686367357086
 30
0.0
 10
5.84986878842892
 20
36.21483507299862
 30
0.0
 10
5.702758326817977
 20
37.45550659145429
 30
0.0
 10
5.542591333415017
 20
38.97758453824463
 30
0.0
 10
5.375317509001554
 20
40.799565546057
 30
0.0
 10
5.218665479942916
 20
42.75337834491682
 30
0.0
 10
5.041300965757965
 20
45.28953282389092
 30
0.0
 10
4.858621906979166
 20
48.4130540942026
 30
0.0
 10
4.689830582025781
 20
52.12876328377124
 30
0.0
 10
4.557895621897838
 20
55.98960179082666
 30
0.0
 10
4.504465817090686
 20
58.61229470148938
 30
0.0
 10
4.477261950816012
 20
59.94764278068816
 30
0.0
  0
SPLINE
  5
98
330
1F
100
AcDbEntity
  8
0
  6
Continuous
 62
     7
370
    15
100
AcDbSpline
210
0.0
220
0.0
230
1.0
 70
     8
 71
     3
 72
    26
 73
    22
 74
     0
 42
0.000000001
 43
0.00000001
 40
0.0
 40
0.0
 40
0.0
 40
0.0
 40
0.022888240041427
 40
0.0470452190901535
 40
0.0725483975754912
 40
0.0994636155845729
 40
0.127846888468885
 40
0.1577459816039954
 40
0.1892017558355371
 40
0.2222492983498737
 40
0.2569188638431951
 40
0.2932366535375248
 40
0.3312254584225875
 40
0.3709051902316141
 40
0.4122933202667411
 40
0.4554052428717519
 40
0.500254577372093
 40
0.6128425816301862
 40
0.733588759332372
 40
0.8626094566302348
 40
1.0
 40
1.0
 40
1.0
 40
1.0
 10
69.82447718575051
 20
75.73321941176229
 30
0.0
 10
69.81330210443987
 20
75.68407953173251
 30
0.0
 10
69.79033248564618
 20
75.58307585395382
 30
0.0
 10
69.74288424543384
 20
75.43045507293581
 30
0.0
 10
69.6850945245729
 20
75.27207588097693
 30
0.0
 10
69.61594166921869
 20
75.10814380026315
 30
0.0
 10
69.53572463619822
 20
74.93858793339194
 30
0.0
 10
69.4443568395549
 20
74.76341961028777
 30
0.0
 10
69.34186232293536
 20
74.58262811274531
 30
0.0
 10
69.22823240635508
 20
74.39621066632748
 30
0.0
 10
69.10346757407433
 20
74.20416347837418
 30
0.0
 10
68.96756557048666
 20
74.0064840858874
 30
0.0
 10
68.82052504121083
 20
73.80317042518423
 30
0.0
 10
68.66234425910139
 20
73.59422106917445
 30
0.0
 10
68.4930227082944
 20
73.37963443313338
 30
0.0
 10
68.31255593559617
 20
73.15941121326568
 30
0.0
 10
68.02699365668818
 20
72.82277780937424
 30
0.0
 10
67.61816641231627
 20
72.3667538766987
 30
0.0
 10
67.06613637673067
 20
71.79095985579735
 30
0.0
 10
66.45973244264343
 20
71.1920491874612
 30
0.0
 10
66.02986414775947
 20
70.79317823403309
 30
0.0
 10
65.80817741088026
 20
70.58747708986002
 30
0.0
  0
CIRCLE
  5
9C
330
1F
100
AcDbEntity
  8
0
  6
Continuous
 62
     7
370
    15
100
AcDbCircle
 10
29.0
 20
29.0
 30
0.0
 40
1.000000000000004
  0
CIRCLE
  5
9D
330
1F
100
AcDbEntity
  8
0
  6
Continuous
 62
     7
370
    15
100
AcDbCircle
 10
75.5860403133
 20
17.0
 30
0.0
 40
0.9999999999999858
  0
CIRCLE
  5
9E
330
1F
100
AcDbEntity
  8
0
  6
Continuous
 62
     7
370
    15
100
AcDbCircle
 10
17.0
 20
75.5860403133
 30
0.0
 40
1.0
  0
SPLINE
  5
AC
330
1F
100
AcDbEntity
  8
0
  6
Continuous
 62
     7
370
    15
100
AcDbSpline
210
0.0
220
0.0
230
1.0
 70
     8
 71
     3
 72
    41
 73
    37
 74
     0
 42
0.000000001
 43
0.00000001
 40
0.0
 40
0.0
 40
0.0
 40
0.0
 40
0.0434325272741252
 40
0.0860296699843563
 40
0.1277929123833559
 40
0.1687238294415289
 40
0.2088240942001569
 40
0.2480954858631057
 40
0.2865398987149232
 40
0.3241593519650824
 40
0.360956000631835
 40
0.396932147594949
 40
0.4320902569647992
 40
0.4664329689362894
 40
0.4999631163203188
 40
0.5333624824190699
 40
0.5657612637344357
 40
0.5971631749720823
 40
0.6275722961656786
 40
0.6569931203874818
 40
0.6854306091610589
 40
0.7128902570345849
 40
0.739378167081668
 40
0.7649011394736209
 40
0.7894667757265661
 40
0.8130836017842158
 40
0.8357612137682014
 40
0.8575104510258337
 40
0.8783436020360618
 40
0.8982746497876176
 40
0.9173195643757248
 40
0.9354966516725232
 40
0.9528269678051325
 40
0.9693348094463228
 40
0.9850482889393769
 40
0.9999999999999999
 40
0.9999999999999999
 40
0.9999999999999999
 40
0.9999999999999999
 10
80.14072936382983
 20
26.44675989370742
 30
0.0
 10
80.26301534232397
 20
27.07057215856653
 30
0.0
 10
80.50523524141398
 20
28.30619823529252
 30
0.0
 10
80.87836372068698
 20
30.13901017683288
 30
0.0
 10
81.25428726211406
 20
31.93385182633617
 30
0.0
 10
81.6339089812179
 20
33.69054797438787
 30
0.0
 10
82.01699383651601
 20
35.40914455751274
 30
0.0
 10
82.40360273027817
 20
37.08963004629585
 30
0.0
 10
82.79371967659786
 20
38.73200787839559
 30
0.0
 10
83.187348557344
 20
40.33627767922999
 30
0.0
 10
83.58448845853026
 20
41.90244000598884
 30
0.0
 10
83.98513840177984
 20
43.43049562149964
 30
0.0
 10
84.38930215176539
 20
44.92044388762709
 30
0.0
 10
84.79696522614836
 20
46.37228968382988
 30
0.0
 10
85.21095380751103
 20
47.79555714587422
 30
0.0
 10
85.63058249279578
 20
49.18748398027908
 30
0.0
 10
86.05528275948474
 20
50.54527105195565
 30
0.0
 10
86.481415460389
 20
51.85666851878482
 30
0.0
 10
86.90896735572507
 20
53.12168196314006
 30
0.0
 10
87.3379413789348
 20
54.34031242147855
 30
0.0
 10
87.76833640866818
 20
55.51256245994141
 30
0.0
 10
88.20015247706195
 20
56.63843468244885
 30
0.0
 10
88.63338949705609
 20
57.71793218167579
 30
0.0
 10
89.06804766766561
 20
58.75105849926622
 30
0.0
 10
89.50412746074215
 20
59.73781773908163
 30
0.0
 10
89.94162981499838
 20
60.67821458576882
 30
0.0
 10
90.38055609753543
 20
61.57225457962384
 30
0.0
 10
90.82090898771912
 20
62.41994352912025
 30
0.0
 10
91.26269040426241
 20
63.22128992100006
 30
0.0
 10
91.70591010493382
 20
63.97629676640602
 30
0.0
 10
92.15055742115814
 20
64.68499018444277
 30
0.0
 10
92.59670207065116
 20
65.34731954922218
 30
0.0
 10
93.04414619516717
 20
65.96350422691901
 30
0.0
 10
93.4936370479965
 20
66.53282699506074
 30
0.0
 10
93.94266237802796
 20
67.05781846928068
 30
0.0
 10
94.25508114240365
 20
67.38017702241915
 30
0.0
 10
94.40741005380191
 20
67.53735236871317
 30
0.0
  0
SPLINE
  5
AE
330
1F
100
AcDbEntity
  8
0
  6
Continuous
 62
     7
370
    15
100
AcDbSpline
210
0.0
220
0.0
230
1.0
 70
     8
 71
     3
 72
    54
 73
    50
 74
     0
 42
0.000000001
 43
0.00000001
 40
0.0
 40
0.0
 40
0.0
 40
0.0
 40
0.0077586519047893
 40
0.0157226132423793
 40
0.023897123520922
 40
0.0322870277934288
 40
0.0408968074892201
 40
0.0497306094124432
 40
0.0587922728208832
 40
0.0680853545668586
 40
0.0776131523316823
 40
0.0873787260197859
 40
0.0973849174015566
 40
0.107634368107809
 40
0.1181295360860549
 40
0.1288727106310278
 40
0.1398660261007259
 40
0.1511114744256848
 40
0.1626109165140107
 40
0.1743660926486595
 40
0.1863786319668447
 40
0.1986500611047104
 40
0.2111818120837572
 40
0.2239752295089972
 40
0.2370315771427143
 40
0.2503520439118983
 40
0.2639377494020756
 40
0.2777897488852973
 40
0.2919090379255052
 40
0.3062965566003545
 40
0.3209531933747912
 40
0.3358797886582716
 40
0.351077138074414
 40
0.3665459954690716
 40
0.3822870756803091
 40
0.3983010570914826
 40
0.4145885839865833
 40
0.4311502687251688
 40
0.447986693752543
 40
0.4650984134593673
 40
0.4824859559035388
 40
0.5001498244059722
 40
0.5630548852806226
 40
0.6287693492910116
 40
0.6973098002705433
 40
0.7686908524101561
 40
0.8429254422750857
 40
0.9200250700565878
 40
1.0
 40
1.0
 40
1.0
 40
1.0
 10
67.53735236871324
 20
94.4074100538021
 30
0.0
 10
67.45640094081041
 20
94.32776310108291
 30
0.0
 10
67.2923559484646
 20
94.16636157812435
 30
0.0
 10
67.03483654601574
 20
93.92959037866383
 30
0.0
 10
66.7650407171954
 20
93.69271294367331
 30
0.0
 10
66.48231917969629
 20
93.45637804724211
 30
0.0
 10
66.18685249080515
 20
93.2204035809131
 30
0.0
 10
65.87858994454986
 20
92.98483907831135
 30
0.0
 10
65.55754520008657
 20
92.74966970334307
 30
0.0
 10
65.22371396131696
 20
92.5148986837408
 30
0.0
 10
64.87709691573453
 20
92.28052434242791
 30
0.0
 10
64.51769336117243
 20
92.0465464774628
 30
0.0
 10
64.1455029884537
 20
91.81296457364435
 30
0.0
 10
63.7605253921823
 20
91.57977828795377
 30
0.0
 10
63.36276021143113
 20
91.34698730367218
 30
0.0
 10
62.95220709375194
 20
91.11459136113534
 30
0.0
 10
62.52886570707705
 20
90.88259024049165
 30
0.0
 10
62.09273573740027
 20
90.65098375881497
 30
0.0
 10
61.64381688971553
 20
90.41977176417566
 30
0.0
 10
61.1821088875442
 20
90.18895413141307
 30
0.0
 10
60.70761147248847
 20
89.95853075820224
 30
0.0
 10
60.22032440352361
 20
89.72850156172206
 30
0.0
 10
59.72024745619495
 20
89.4988664757566
 30
0.0
 10
59.20738042173792
 20
89.26962544820384
 30
0.0
 10
58.68172310616629
 20
89.0407784389301
 30
0.0
 10
58.14327532935215
 20
88.81232541792883
 30
0.0
 10
57.59203692411781
 20
88.5842663637398
 30
0.0
 10
57.02800773535316
 20
88.35660126209582
 30
0.0
 10
56.45118761916748
 20
88.1293301047645
 30
0.0
 10
55.8615764420834
 20
87.90245288855438
 30
0.0
 10
55.25917408026941
 20
87.67596961448056
 30
0.0
 10
54.64398041884056
 20
87.4498802869969
 30
0.0
 10
54.01599535111941
 20
87.22418491355329
 30
0.0
 10
53.37521877827282
 20
86.99888350340618
 30
0.0
 10
52.72165060772669
 20
86.77397606972056
 30
0.0
 10
52.05529075647416
 20
86.54946261942767
 30
0.0
 10
51.37613913584648
 20
86.32534319028724
 30
0.0
 10
50.68419570743922
 20
86.10161770751326
 30
0.0
 10
49.97946026692652
 20
85.87828653111625
 30
0.0
 10
49.26193326897356
 20
85.65534836118886
 30
0.0
 10
48.53161267111477
 20
85.43280824667781
 30
0.0
 10
47.15797154564721
 20
85.0221406071822
 30
0.0
 10
45.09944462387939
 20
84.4330626540124
 30
0.0
 10
42.31225964123722
 20
83.6851530331587
 30
0.0
 10
39.39375506505218
 20
82.94932986789476
 30
0.0
 10
36.34396080057697
 20
82.22543070452151
 30
0.0
 10
33.16272193167839
 20
81.51419952817838
 30
0.0
 10
29.85060454713377
 20
80.81268746548497
 30
0.0
 10
27.59513713920859
 20
80.36743224614092
 30
0.0
 10
26.44675989370734
 20
80.14072936382982
 30
0.0
  0
LINE
  5
B0
330
1F
100
AcDbEntity
  8
0
  6
Continuous
 62
     7
370
    15
100
AcDbLine
 10
79.6706800409
 20
79.6706800409
 30
0.0
 11
80.3777868221
 21
78.9635732597
 31
0.0
  0
LINE
  5
B1
330
1F
100
AcDbEntity
  8
0
  6
Continuous
 62
     7
370
    15
100
AcDbLine
 10
79.6706800409
 20
78.2564664785
 30
0.0
 11
80.3777868221
 21
78.9635732597
 31
0.0
  0
LINE
  5
B2
330
1F
100
AcDbEntity
  8
0
  6
Continuous
 62
     7
370
    15
100
AcDbLine
 10
77.5493596973
 20
78.9635732597
 30
0.0
 11
78.2564664785
 21
78.2564664785
 31
0.0
  0
LINE
  5
B3
330
1F
100
AcDbEntity
  8
0
  6
Continuous
 62
     7
370
    15
100
AcDbLine
 10
77.5493596973
 20
78.9635732597
 30
0.0
 11
78.2564664785
 21
79.6706800409
 31
0.0
  0
LINE
  5
B4
330
1F
100
AcDbEntity
  8
0
  6
Continuous
 62
     7
370
    15
100
AcDbLine
 10
25.4558441227
 20
25.4558441227
 30
0.0
 11
26.1629509039
 21
24.7487373415
 31
0.0
  0
LINE
  5
B5
330
1F
100
AcDbEntity
  8
0
  6
Continuous
 62
     7
370
    15
100
AcDbLine
 10
25.4558441227
 20
24.0416305603
 30
0.0
 11
26.1629509039
 21
24.7487373415
 31
0.0
  0
LINE
  5
B6
330
1F
100
AcDbEntity
  8
0
  6
Continuous
 62
     7
370
    15
100
AcDbLine
 10
23.3345237792
 20
24.7487373415
 30
0.0
 11
24.0416305603
 21
24.0416305603
 31
0.0
  0
LINE
  5
B7
330
1F
100
AcDbEntity
  8
0
  6
Continuous
 62
     7
370
    15
100
AcDbLine
 10
23.3345237792
 20
24.7487373415
 30
0.0
 11
24.0416305603
 21
25.4558441227
 31
0.0
  0
LINE
  5
B8
330
1F
100
AcDbEntity
  8
0
  6
Continuous
 62
     7
370
    15
100
AcDbLine
 10
30.0
 20
13.7371439887
 30
0.0
 11
30.0
 21
7.4768050363
 31
0.0
  0
LINE
  5
B9
330
1F
100
AcDbEntity
  8
0
  6
Continuous
 62
     7
370
    15
100
AcDbLine
 10
59.9476427807
 20
4.4772619508
 30
0.0
 11
67.5424962496
 21
4.3446932904
 31
0.0
  0
LINE
  5
BA
330
1F
100
AcDbEntity
  8
0
  6
Continuous
 62
     7
370
    15
100
AcDbLine
 10
77.8562877377
 20
36.9201436649
 30
0.0
 11
85.2292097396
 21
66.4913186546
 31
0.0
  0
LINE
  5
BB
330
1F
100
AcDbEntity
  8
0
  6
Continuous
 62
     7
370
    15
100
AcDbLine
 10
70.5874770899
 20
65.8081774109
 30
0.0
 11
35.2544532638
 21
27.248948141
 31
0.0
  0
LINE
  5
BC
330
1F
100
AcDbEntity
  8
0
  6
Continuous
 62
     7
370
    15
100
AcDbLine
 10
66.4913186546
 20
85.2292097396
 30
0.0
 11
36.9201436649
 21
77.8562877377
 31
0.0
  0
LINE
  5
BD
330
1F
100
AcDbEntity
  8
0
  6
Continuous
 62
     7
370
    15
100
AcDbLine
 10
4.3446932904
 20
67.5424962496
 30
0.0
 11
4.4772619508
 21
59.9476427807
 31
0.0
  0
LINE
  5
BE
330
1F
100
AcDbEntity
  8
0
  6
Continuous
 62
     7
370
    15
100
AcDbLine
 10
7.4768050363
 20
30.0
 30
0.0
 11
13.7371439887
 21
30.0
 31
0.0
  0
LINE
  5
BF
330
1F
100
AcDbEntity
  8
0
  6
Continuous
 62
     7
370
    15
100
AcDbLine
 10
27.248948141
 20
35.2544532638
 30
0.0
 11
65.8081774109
 21
70.5874770899
 31
0.0
  0
LINE
  5
C0
330
1F
100
AcDbEntity
  8
0
  6
Continuous
 62
     7
370
    15
100
AcDbLine
 10
0.0
 20
75.0
 30
0.0
 11
0.0
 21
59.5424962496
 31
0.0
  0
LINE
  5
C1
330
1F
100
AcDbEntity
  8
0
  6
Continuous
 62
     7
370
    15
100
AcDbLine
 10
97.0
 20
100.0
 30
0.0
 11
77.2720779386
 21
100.0
 31
0.0
  0
LINE
  5
C2
330
1F
100
AcDbEntity
  8
0
  6
Continuous
 62
     7
370
    15
100
AcDbLine
 10
100.0
 20
77.2720779386
 30
0.0
 11
100.0
 21
97.0
 31
0.0
  0
LINE
  5
C3
330
1F
100
AcDbEntity
  8
0
  6
Continuous
 62
     7
370
    15
100
AcDbLine
 10
59.5424962496
 20
0.0
 30
0.0
 11
75.0
 21
0.0
 31
0.0
  0
LINE
  5
C4
330
1F
100
AcDbEntity
  8
0
  6
Continuous
 62
     7
370
    15
100
AcDbLine
 10
0.0
 20
0.0
 30
0.0
 11
57.5424962496
 21
0.0
 31
0.0
  0
LINE
  5
C5
330
1F
100
AcDbEntity
  8
0
  6
Continuous
 62
     7
370
    15
100
AcDbLine
 10
0.0
 20
57.5424962496
 30
0.0
 11
0.0
 21
0.0
 31
0.0
  0
LINE
  5
C6
330
1F
100
AcDbEntity
  8
0
  6
Continuous
 62
     7
370
    15
100
AcDbLine
 10
75.0
 20
0.0
 30
0.0
 11
80.1407293638
 21
26.4467598937
 31
0.0
  0
LINE
  5
C7
330
1F
100
AcDbEntity
  8
0
  6
Continuous
 62
     7
370
    15
100
AcDbLine
 10
70.2010101268
 20
97.0710678119
 30
0.0
 11
67.5373523687
 21
94.4074100538
 31
0.0
  0
LINE
  5
C8
330
1F
100
AcDbEntity
  8
0
  6
Continuous
 62
     7
370
    15
100
AcDbLine
 10
26.4467598937
 20
80.1407293638
 30
0.0
 11
0.0
 21
75.0
 31
0.0
  0
LINE
  5
C9
330
1F
100
AcDbEntity
  8
0
  6
Continuous
 62
     7
370
    15
100
AcDbLine
 10
94.4074100538
 20
67.5373523687
 30
0.0
 11
97.0710678119
 21
70.2010101268
 31
0.0
  0
ARC
  5
CA
330
1F
100
AcDbEntity
  8
0
  6
Continuous
 62
     7
370
    15
100
AcDbCircle
 10
78.9635732597
 20
78.9635732597
 30
0.0
 40
0.9999999999994453
100
AcDbArc
 50
315.0
 51
45.0000000001
  0
ARC
  5
CB
330
1F
100
AcDbEntity
  8
0
  6
Continuous
 62
     7
370
    15
100
AcDbCircle
 10
78.9635732597
 20
78.9635732597
 30
0.0
 40
1.000000000000581
100
AcDbArc
 50
135.0
 51
224.9999999999
  0
ARC
  5
CC
330
1F
100
AcDbEntity
  8
0
  6
Continuous
 62
     7
370
    15
100
AcDbCircle
 10
24.7487373415
 20
24.7487373415
 30
0.0
 40
0.9999999999999678
100
AcDbArc
 50
315.0
 51
45.0
  0
ARC
  5
CD
330
1F
100
AcDbEntity
  8
0
  6
Continuous
 62
     7
370
    15
100
AcDbCircle
 10
24.7487373415
 20
24.7487373415
 30
0.0
 40
1.000000000000023
100
AcDbArc
 50
135.0
 51
225.0
  0
ARC
  5
CE
330
1F
100
AcDbEntity
  8
0
  6
Continuous
 62
     7
370
    15
100
AcDbCircle
 10
50.0
 20
13.7371439887
 30
0.0
 40
19.99999999999991
100
AcDbArc
 50
137.5
 51
180.0
  0
ARC
  5
CF
330
1F
100
AcDbEntity
  8
0
  6
Continuous
 62
     7
370
    15
100
AcDbCircle
 10
79.8925832451
 20
67.8218890804
 30
0.0
 40
5.500000000000075
100
AcDbArc
 50
346.0
 51
59.4924286774
  0
ARC
  5
D0
330
1F
100
AcDbEntity
  8
0
  6
Continuous
 62
     7
370
    15
100
AcDbCircle
 10
81.1617137903
 20
69.9757942916
 30
0.0
 40
3.000000000000009
100
AcDbArc
 50
59.4924286774
 51
143.6196871823
  0
ARC
  5
D1
330
1F
100
AcDbEntity
  8
0
  6
Continuous
 62
     7
370
    15
100
AcDbCircle
 10
74.7209325726
 20
74.7209325726
 30
0.0
 40
4.999999999999989
100
AcDbArc
 50
281.6806961244
 51
323.6196871823
  0
ARC
  5
D2
330
1F
100
AcDbEntity
  8
0
  6
Continuous
 62
     7
370
    15
100
AcDbCircle
 10
13.7371439887
 20
50.0
 30
0.0
 40
19.99999999999998
100
AcDbArc
 50
270.0
 51
312.5
  0
ARC
  5
D3
330
1F
100
AcDbEntity
  8
0
  6
Continuous
 62
     7
370
    15
100
AcDbCircle
 10
74.7209325726
 20
74.7209325726
 30
0.0
 40
5.000000000000019
100
AcDbArc
 50
126.3803128177
 51
168.3193038757
  0
ARC
  5
D4
330
1F
100
AcDbEntity
  8
0
  6
Continuous
 62
     7
370
    15
100
AcDbCircle
 10
69.9757942916
 20
81.1617137903
 30
0.0
 40
3.000000000000066
100
AcDbArc
 50
306.3803128177
 51
30.5075713226
  0
ARC
  5
D5
330
1F
100
AcDbEntity
  8
0
  6
Continuous
 62
     7
370
    15
100
AcDbCircle
 10
67.8218890804
 20
79.8925832451
 30
0.0
 40
5.50000000000002
100
AcDbArc
 50
30.5075713226
 51
104.0
  0
ARC
  5
D6
330
1F
100
AcDbEntity
  8
0
  6
Continuous
 62
     7
370
    15
100
AcDbCircle
 10
77.2720779386
 20
90.0
 30
0.0
 40
10.00000000000009
100
AcDbArc
 50
90.0
 51
135.0
  0
ARC
  5
D7
330
1F
100
AcDbEntity
  8
0
  6
Continuous
 62
     7
370
    15
100
AcDbCircle
 10
97.0
 20
97.0
 30
0.0
 40
3.0
100
AcDbArc
 50
0.0
 51
90.0
  0
ARC
  5
D8
330
1F
100
AcDbEntity
  8
0
  6
Continuous
 62
     7
370
    15
100
AcDbCircle
 10
90.0
 20
77.2720779386
 30
0.0
 40
9.999999999999957
100
AcDbArc
 50
315.0
 51
0.0
  0
ARC
  5
D9
330
1F
100
AcDbEntity
  8
0
  6
Continuous
 62
     7
370
    15
100
AcDbCircle
 10
58.5424962496
 20
0.0
 30
0.0
 40
1.000000000000014
100
AcDbArc
 50
0.0
 51
180.0
  0
ARC
  5
DA
330
1F
100
AcDbEntity
  8
0
  6
Continuous
 62
     7
370
    15
100
AcDbCircle
 10
0.0
 20
58.5424962496
 30
0.0
 40
1.000000000000007
100
AcDbArc
 50
270.0
 51
90.0
  0
ENDSEC
  0
SECTION
  2
OBJECTS
  0
DICTIONARY
  5
C
330
0
100
AcDbDictionary
281
     1
  3
ACAD_GROUP
350
D
  3
ACAD_LAYOUT
350
1A
  3
ACAD_MLINESTYLE
350
17
  3
ACAD_PLOTSETTINGS
350
19
  3
ACAD_PLOTSTYLENAME
350
E
  3
ACAD_SCALELIST
350
47
  0
DICTIONARY
  5
D
102
{ACAD_REACTORS
330
C
102
}
330
C
100
AcDbDictionary
281
     1
  0
DICTIONARY
  5
1A
102
{ACAD_REACTORS
330
C
102
}
330
C
100
AcDbDictionary
281
     1
  3
Layout1
350
1E
  3
Layout2
350
26
  3
Model
350
22
  0
DICTIONARY
  5
17
102
{ACAD_REACTORS
330
C
102
}
330
C
100
AcDbDictionary
281
     1
  3
Standard
350
18
  0
DICTIONARY
  5
19
102
{ACAD_REACTORS
330
C
102
}
330
C
100
AcDbDictionary
281
     1
  0
ACDBDICTIONARYWDFLT
  5
E
102
{ACAD_REACTORS
330
C
102
}
330
C
100
AcDbDictionary
281
     1
  3
Normal
350
F
100
AcDbDictionaryWithDefault
340
F
  0
DICTIONARY
  5
47
102
{ACAD_REACTORS
330
C
102
}
330
C
100
AcDbDictionary
281
     1
  3
A0
350
48
  3
A1
350
49
  3
A2
350
4A
  3
A3
350
4B
  3
A4
350
4C
  3
A5
350
4D
  3
A6
350
4E
  3
A7
350
4F
  3
A8
350
50
  3
A9
350
51
  3
B0
350
52
  3
B1
350
53
  3
B2
350
54
  3
B3
350
55
  3
B4
350
56
  3
B5
350
57
  3
B6
350
58
  3
B7
350
59
  3
B8
350
5A
  3
B9
350
5B
  3
C0
350
5C
  3
C1
350
5D
  3
C2
350
5E
  3
C3
350
5F
  3
C4
350
60
  3
C5
350
61
  3
C6
350
62
  3
C7
350
63
  3
C8
350
64
  3
C9
350
65
  3
D0
350
66
  3
D1
350
67
  3
D2
350
68
  0
LAYOUT
  5
1E
102
{ACAD_REACTORS
330
1A
102
}
330
1A
100
AcDbPlotSettings
  1

  2
none_device
  4

  6

 40
0.0
 41
0.0
 42
0.0
 43
0.0
 44
0.0
 45
0.0
 46
0.0
 47
0.0
 48
0.0
 49
0.0
140
0.0
141
0.0
142
1.0
143
1.0
 70
   688
 72
     1
 73
     0
 74
     5
  7

 75
    16
147
1.0
148
0.0
149
0.0
100
AcDbLayout
  1
Layout1
 70
     1
 71
     1
 10
0.0
 20
0.0
 11
420.0
 21
297.0
 12
0.0
 22
0.0
 32
0.0
 14
1.0000000000E+20
 24
1.0000000000E+20
 34
1.0000000000E+20
 15
-1.0000000000E+20
 25
-1.0000000000E+20
 35
-1.0000000000E+20
146
0.0
 13
0.0
 23
0.0
 33
0.0
 16
1.0
 26
0.0
 36
0.0
 17
0.0
 27
1.0
 37
0.0
 76
     0
330
1B
  0
LAYOUT
  5
26
102
{ACAD_REACTORS
330
1A
102
}
330
1A
100
AcDbPlotSettings
  1

  2
none_device
  4

  6

 40
0.0
 41
0.0
 42
0.0
 43
0.0
 44
0.0
 45
0.0
 46
0.0
 47
0.0
 48
0.0
 49
0.0
140
0.0
141
0.0
142
1.0
143
1.0
 70
   688
 72
     1
 73
     0
 74
     5
  7

 75
    16
147
1.0
148
0.0
149
0.0
100
AcDbLayout
  1
Layout2
 70
     1
 71
     2
 10
0.0
 20
0.0
 11
0.0
 21
0.0
 12
0.0
 22
0.0
 32
0.0
 14
0.0
 24
0.0
 34
0.0
 15
0.0
 25
0.0
 35
0.0
146
0.0
 13
0.0
 23
0.0
 33
0.0
 16
1.0
 26
0.0
 36
0.0
 17
0.0
 27
1.0
 37
0.0
 76
     0
330
23
  0
LAYOUT
  5
22
102
{ACAD_REACTORS
330
1A
102
}
330
1A
100
AcDbPlotSettings
  1

  2
none_device
  4
ANSI_A_(11.00_x_8.50_Inches)
  6

 40
6.35
 41
19.05
 42
6.35000508
 43
19.05000254
 44
279.4
 45
215.9
 46
26.47949746
 47
-17.97050127
 48
0.0
 49
0.0
140
0.0
141
0.0
142
0.08415
143
1.0
 70
  1696
 72
     0
 73
     0
 74
     0
  7

 75
     0
147
0.0179189148
148
-1300.4909072572
149
0.0
100
AcDbLayout
  1
Model
 70
     1
 71
     0
 10
0.0
 20
0.0
 11
420.0
 21
297.0
 12
0.0
 22
0.0
 32
0.0
 14
0.0
 24
0.0
 34
0.0
 15
100.0
 25
100.0
 35
0.0
146
0.0
 13
0.0
 23
0.0
 33
0.0
 16
1.0
 26
0.0
 36
0.0
 17
0.0
 27
1.0
 37
0.0
 76
     0
330
1F
331
29
  0
MLINESTYLE
  5
18
102
{ACAD_REACTORS
330
17
102
}
330
17
100
AcDbMlineStyle
  2
Standard
 70
     0
  3

 62
   256
 51
90.0
 52
90.0
 71
     2
 49
0.5
 62
   256
  6
BYLAYER
 49
-0.5
 62
   256
  6
BYLAYER
  0
ACDBPLACEHOLDER
  5
F
102
{ACAD_REACTORS
330
E
102
}
330
E
  0
SCALE
  5
48
102
{ACAD_REACTORS
330
47
102
}
330
47
100
AcDbScale
 70
     0
300
1:1
140
1.0
141
1.0
290
     1
  0
SCALE
  5
49
102
{ACAD_REACTORS
330
47
102
}
330
47
100
AcDbScale
 70
     0
300
1:2
140
1.0
141
2.0
290
     0
  0
SCALE
  5
4A
102
{ACAD_REACTORS
330
47
102
}
330
47
100
AcDbScale
 70
     0
300
1:4
140
1.0
141
4.0
290
     0
  0
SCALE
  5
4B
102
{ACAD_REACTORS
330
47
102
}
330
47
100
AcDbScale
 70
     0
300
1:5
140
1.0
141
5.0
290
     0
  0
SCALE
  5
4C
102
{ACAD_REACTORS
330
47
102
}
330
47
100
AcDbScale
 70
     0
300
1:8
140
1.0
141
8.0
290
     0
  0
SCALE
  5
4D
102
{ACAD_REACTORS
330
47
102
}
330
47
100
AcDbScale
 70
     0
300
1:10
140
1.0
141
10.0
290
     0
  0
SCALE
  5
4E
102
{ACAD_REACTORS
330
47
102
}
330
47
100
AcDbScale
 70
     0
300
1:16
140
1.0
141
16.0
290
     0
  0
SCALE
  5
4F
102
{ACAD_REACTORS
330
47
102
}
330
47
100
AcDbScale
 70
     0
300
1:20
140
1.0
141
20.0
290
     0
  0
SCALE
  5
50
102
{ACAD_REACTORS
330
47
102
}
330
47
100
AcDbScale
 70
     0
300
1:30
140
1.0
141
30.0
290
     0
  0
SCALE
  5
51
102
{ACAD_REACTORS
330
47
102
}
330
47
100
AcDbScale
 70
     0
300
1:40
140
1.0
141
40.0
290
     0
  0
SCALE
  5
52
102
{ACAD_REACTORS
330
47
102
}
330
47
100
AcDbScale
 70
     0
300
1:50
140
1.0
141
50.0
290
     0
  0
SCALE
  5
53
102
{ACAD_REACTORS
330
47
102
}
330
47
100
AcDbScale
 70
     0
300
1:100
140
1.0
141
100.0
290
     0
  0
SCALE
  5
54
102
{ACAD_REACTORS
330
47
102
}
330
47
100
AcDbScale
 70
     0
300
2:1
140
2.0
141
1.0
290
     0
  0
SCALE
  5
55
102
{ACAD_REACTORS
330
47
102
}
330
47
100
AcDbScale
 70
     0
300
4:1
140
4.0
141
1.0
290
     0
  0
SCALE
  5
56
102
{ACAD_REACTORS
330
47
102
}
330
47
100
AcDbScale
 70
     0
300
8:1
140
8.0
141
1.0
290
     0
  0
SCALE
  5
57
102
{ACAD_REACTORS
330
47
102
}
330
47
100
AcDbScale
 70
     0
300
10:1
140
10.0
141
1.0
290
     0
  0
SCALE
  5
58
102
{ACAD_REACTORS
330
47
102
}
330
47
100
AcDbScale
 70
     0
300
100:1
140
100.0
141
1.0
290
     0
  0
SCALE
  5
59
102
{ACAD_REACTORS
330
47
102
}
330
47
100
AcDbScale
 70
     0
300
1/128" = 1'-0"
140
0.0078125
141
12.0
290
     0
  0
SCALE
  5
5A
102
{ACAD_REACTORS
330
47
102
}
330
47
100
AcDbScale
 70
     0
300
1/64" = 1'-0"
140
0.015625
141
12.0
290
     0
  0
SCALE
  5
5B
102
{ACAD_REACTORS
330
47
102
}
330
47
100
AcDbScale
 70
     0
300
1/32" = 1'-0"
140
0.03125
141
12.0
290
     0
  0
SCALE
  5
5C
102
{ACAD_REACTORS
330
47
102
}
330
47
100
AcDbScale
 70
     0
300
1/16" = 1'-0"
140
0.0625
141
12.0
290
     0
  0
SCALE
  5
5D
102
{ACAD_REACTORS
330
47
102
}
330
47
100
AcDbScale
 70
     0
300
3/32" = 1'-0"
140
0.09375
141
12.0
290
     0
  0
SCALE
  5
5E
102
{ACAD_REACTORS
330
47
102
}
330
47
100
AcDbScale
 70
     0
300
1/8" = 1'-0"
140
0.125
141
12.0
290
     0
  0
SCALE
  5
5F
102
{ACAD_REACTORS
330
47
102
}
330
47
100
AcDbScale
 70
     0
300
3/16" = 1'-0"
140
0.1875
141
12.0
290
     0
  0
SCALE
  5
60
102
{ACAD_REACTORS
330
47
102
}
330
47
100
AcDbScale
 70
     0
300
1/4" = 1'-0"
140
0.25
141
12.0
290
     0
  0
SCALE
  5
61
102
{ACAD_REACTORS
330
47
102
}
330
47
100
AcDbScale
 70
     0
300
3/8" = 1'-0"
140
0.375
141
12.0
290
     0
  0
SCALE
  5
62
102
{ACAD_REACTORS
330
47
102
}
330
47
100
AcDbScale
 70
     0
300
1/2" = 1'-0"
140
0.5
141
12.0
290
     0
  0
SCALE
  5
63
102
{ACAD_REACTORS
330
47
102
}
330
47
100
AcDbScale
 70
     0
300
3/4" = 1'-0"
140
0.75
141
12.0
290
     0
  0
SCALE
  5
64
102
{ACAD_REACTORS
330
47
102
}
330
47
100
AcDbScale
 70
     0
300
1" = 1'-0"
140
1.0
141
12.0
290
     0
  0
SCALE
  5
65
102
{ACAD_REACTORS
330
47
102
}
330
47
100
AcDbScale
 70
     0
300
1-1/2" = 1'-0"
140
1.5
141
12.0
290
     0
  0
SCALE
  5
66
102
{ACAD_REACTORS
330
47
102
}
330
47
100
AcDbScale
 70
     0
300
3" = 1'-0"
140
3.0
141
12.0
290
     0
  0
SCALE
  5
67
102
{ACAD_REACTORS
330
47
102
}
330
47
100
AcDbScale
 70
     0
300
6" = 1'-0"
140
6.0
141
12.0
290
     0
  0
SCALE
  5
68
102
{ACAD_REACTORS
330
47
102
}
330
47
100
AcDbScale
 70
     0
300
1'-0" = 1'-0"
140
12.0
141
12.0
290
     0
  0
ENDSEC
  0
EOF
